<svg width="16" height="17" viewBox="0 0 16 17" fill="none" xmlns="http://www.w3.org/2000/svg">
<path d="M15.5 8.02724V15.2499C15.5 15.5814 15.3683 15.8994 15.1339 16.1338C14.8995 16.3682 14.5815 16.4999 14.25 16.4999H11.125C10.7935 16.4999 10.4755 16.3682 10.2411 16.1338C10.0067 15.8994 9.875 15.5814 9.875 15.2499V12.1249C9.875 11.9591 9.80915 11.8002 9.69194 11.6829C9.57473 11.5657 9.41576 11.4999 9.25 11.4999H6.75C6.58424 11.4999 6.42527 11.5657 6.30806 11.6829C6.19085 11.8002 6.125 11.9591 6.125 12.1249V15.2499C6.125 15.5814 5.9933 15.8994 5.75888 16.1338C5.52446 16.3682 5.20652 16.4999 4.875 16.4999H1.75C1.41848 16.4999 1.10054 16.3682 0.866116 16.1338C0.631696 15.8994 0.5 15.5814 0.5 15.2499V8.02724C0.499974 7.85424 0.535859 7.68311 0.605384 7.5247C0.674909 7.36628 0.776561 7.22402 0.903906 7.10692L7.15391 1.21005L7.1625 1.20145C7.39261 0.992184 7.69248 0.876221 8.00352 0.876221C8.31455 0.876221 8.61442 0.992184 8.84453 1.20145C8.8472 1.20451 8.85007 1.20738 8.85312 1.21005L15.1031 7.10692C15.2292 7.22464 15.3295 7.36718 15.3978 7.52556C15.4661 7.68395 15.5009 7.85475 15.5 8.02724Z" fill="white"/>
</svg>
